<svg width="24" height="24" viewBox="0 0 24 24" fill="none" xmlns="http://www.w3.org/2000/svg">
<path d="M17 2.75H7C4.65279 2.75 2.75 4.65279 2.75 7V17C2.75 19.3472 4.65279 21.25 7 21.25H17C19.3472 21.25 21.25 19.3472 21.25 17V7C21.25 4.65279 19.3472 2.75 17 2.75Z" stroke="#1B1B1B" stroke-width="1.5"/>
<path fill-rule="evenodd" clip-rule="evenodd" d="M16.711 8.96094C16.711 8.54673 16.3752 8.21094 15.961 8.21094H13.1325C12.7183 8.21094 12.3825 8.54673 12.3825 8.96094C12.3825 9.37516 12.7183 9.71094 13.1325 9.71094H14.1503L11.7346 12.1267L10.3041 10.6962C10.0112 10.4033 9.53634 10.4033 9.24345 10.6962L6.06147 13.8782C5.76857 14.1711 5.76857 14.646 6.06147 14.9389C6.35436 15.2318 6.82923 15.2318 7.12213 14.9389L9.77378 12.2872L11.2042 13.7177C11.4971 14.0106 11.972 14.0106 12.2649 13.7177L15.211 10.7716V11.7894C15.211 12.2036 15.5468 12.5394 15.961 12.5394C16.3752 12.5394 16.711 12.2036 16.711 11.7894V8.96094Z" fill="#1B1B1B"/>
</svg>
