<svg width="24" height="24" viewBox="0 0 24 24" fill="none" xmlns="http://www.w3.org/2000/svg">
<path d="M17 2.75H7C4.65279 2.75 2.75 4.65279 2.75 7V17C2.75 19.3472 4.65279 21.25 7 21.25H17C19.3472 21.25 21.25 19.3472 21.25 17V7C21.25 4.65279 19.3472 2.75 17 2.75Z" stroke="#1B1B1B" stroke-width="1.5"/>
<path fill-rule="evenodd" clip-rule="evenodd" d="M7.25586 14.8226C7.25586 15.2368 7.59165 15.5726 8.00586 15.5726H10.8343C11.2485 15.5726 11.5843 15.2368 11.5843 14.8226C11.5843 14.4084 11.2485 14.0726 10.8343 14.0726H9.81652L12.2323 11.6569L13.6627 13.0873C13.9556 13.3802 14.4305 13.3802 14.7234 13.0873L17.9054 9.90533C18.1983 9.61244 18.1983 9.13756 17.9054 8.84467C17.6125 8.55178 17.1376 8.55178 16.8447 8.84467L14.193 11.4963L12.7626 10.0659C12.4697 9.77297 11.9948 9.77297 11.7019 10.0659L8.75586 13.0119V11.9942C8.75586 11.58 8.42007 11.2442 8.00586 11.2442C7.59165 11.2442 7.25586 11.58 7.25586 11.9942V14.8226Z" fill="#1B1B1B"/>
</svg>
