<svg width="24" height="24" viewBox="0 0 24 24" fill="none" xmlns="http://www.w3.org/2000/svg">
<path d="M13.5 2.75H10.5C9.5335 2.75 8.75 3.5335 8.75 4.5C8.75 5.4665 9.5335 6.25 10.5 6.25H13.5C14.4665 6.25 15.25 5.4665 15.25 4.5C15.25 3.5335 14.4665 2.75 13.5 2.75Z" stroke="#1B1B1B" stroke-width="1.5"/>
<path fill-rule="evenodd" clip-rule="evenodd" d="M8.04646 4.0332C8.01596 4.19397 8 4.35989 8 4.52954C8 4.88298 8.06927 5.22024 8.19498 5.52849C7.66343 5.54763 7.20914 5.57964 6.81078 5.6332C5.88786 5.75728 5.49287 5.97173 5.23223 6.23236C4.9716 6.49299 4.75715 6.88799 4.63307 7.81091C4.50319 8.77698 4.5 10.0721 4.5 12.0001V14.0001C4.5 15.9281 4.50319 17.2232 4.63307 18.1893C4.75715 19.1122 4.9716 19.5072 5.23223 19.7679C5.49287 20.0285 5.88786 20.243 6.81078 20.367C7.77686 20.4969 9.07198 20.5001 11 20.5001H13C14.928 20.5001 16.2231 20.4969 17.1892 20.367C18.1121 20.243 18.5071 20.0285 18.7678 19.7679C19.0284 19.5072 19.2428 19.1122 19.3669 18.1893C19.4968 17.2232 19.5 15.9281 19.5 14.0001V12.0001C19.5 10.0721 19.4968 8.77698 19.3669 7.81091C19.2428 6.88799 19.0284 6.49299 18.7678 6.23236C18.5071 5.97173 18.1121 5.75728 17.1892 5.6332C16.7909 5.57964 16.3366 5.54763 15.805 5.52849C15.9307 5.22024 16 4.88298 16 4.52954C16 4.35989 15.984 4.19397 15.9535 4.0332C17.8533 4.10875 19.0136 4.35686 19.8284 5.1717C21 6.34327 21 8.22889 21 12.0001V14.0001C21 17.7713 21 19.657 19.8284 20.8285C18.6569 22.0001 16.7712 22.0001 13 22.0001H11C7.22876 22.0001 5.34315 22.0001 4.17157 20.8285C3 19.657 3 17.7713 3 14.0001V12.0001C3 8.22889 3 6.34327 4.17157 5.1717C4.98641 4.35686 6.14665 4.10875 8.04646 4.0332Z" fill="#1B1B1B"/>
<path d="M10.2012 11.7988L13.7984 15.396M13.7984 11.7988L10.2012 15.396L13.7984 11.7988Z" stroke="#1B1B1B" stroke-width="1.5" stroke-linecap="round"/>
</svg>
