<svg width="24" height="24" viewBox="0 0 24 24" fill="none" xmlns="http://www.w3.org/2000/svg">
<path fill-rule="evenodd" clip-rule="evenodd" d="M12 19.5C10.0917 19.5 8.78101 19.4979 7.77884 19.3894C6.80474 19.2838 6.30161 19.0923 5.94276 18.8316C5.64563 18.6157 5.38433 18.3544 5.16845 18.0572C4.90773 17.6984 4.71618 17.1953 4.61065 16.2212C4.59353 16.0632 4.57906 15.8976 4.56683 15.7231C4.53857 15.3201 4.20966 15 3.80561 15C3.38104 15 3.0387 15.3525 3.06708 15.7761C3.16256 17.2014 3.39399 18.1669 3.95492 18.9389C4.26332 19.3634 4.63661 19.7367 5.06108 20.0451C6.37541 21 8.25028 21 12 21C15.7497 21 17.6246 21 18.9389 20.0451C19.3634 19.7367 19.7367 19.3634 20.0451 18.9389C20.606 18.1669 20.8375 17.2014 20.9329 15.7761C20.9613 15.3525 20.619 15 20.1944 15C19.7904 15 19.4614 15.3201 19.4332 15.7231C19.421 15.8976 19.4065 16.0632 19.3894 16.2212C19.2838 17.1953 19.0923 17.6984 18.8316 18.0572C18.6157 18.3544 18.3544 18.6157 18.0573 18.8316C17.6984 19.0923 17.1953 19.2838 16.2212 19.3894C15.219 19.4979 13.9083 19.5 12 19.5ZM3.80561 9C4.20966 9 4.53857 8.67992 4.56683 8.27686C4.57906 8.10243 4.59353 7.9368 4.61065 7.77883C4.71618 6.80473 4.90773 6.3016 5.16845 5.94275C5.38433 5.64562 5.64563 5.38432 5.94276 5.16844C6.30161 4.90772 6.80474 4.71617 7.77884 4.61064C8.78101 4.50206 10.0917 4.5 12 4.5C13.9083 4.5 15.219 4.50206 16.2212 4.61064C17.1953 4.71617 17.6984 4.90772 18.0573 5.16844C18.3544 5.38432 18.6157 5.64562 18.8316 5.94275C19.0923 6.3016 19.2838 6.80473 19.3894 7.77883C19.4065 7.9368 19.421 8.10243 19.4332 8.27686C19.4614 8.67992 19.7904 9 20.1944 9C20.619 9 20.9613 8.64753 20.9329 8.22391C20.8375 6.79861 20.606 5.83313 20.0451 5.06107C19.7367 4.6366 19.3634 4.26331 18.9389 3.95491C17.6246 3 15.7497 3 12 3C8.25028 3 6.37541 3 5.06108 3.95491C4.63661 4.26331 4.26332 4.6366 3.95492 5.06107C3.39399 5.83313 3.16256 6.79861 3.06708 8.22391C3.0387 8.64753 3.38104 9 3.80561 9Z" fill="#1B1B1B"/>
<path d="M2.75 12.25H21.25" stroke="#1B1B1B" stroke-width="1.5" stroke-linecap="round"/>
</svg>
