<svg width="24" height="24" viewBox="0 0 24 24" fill="none" xmlns="http://www.w3.org/2000/svg">
<path d="M9 6.75H8C7.30964 6.75 6.75 7.30964 6.75 8V9C6.75 9.69036 7.30964 10.25 8 10.25H9C9.69036 10.25 10.25 9.69036 10.25 9V8C10.25 7.30964 9.69036 6.75 9 6.75Z" stroke="#1B1B1B" stroke-width="1.5"/>
<path d="M16 6.75H15C14.3096 6.75 13.75 7.30964 13.75 8V9C13.75 9.69036 14.3096 10.25 15 10.25H16C16.6904 10.25 17.25 9.69036 17.25 9V8C17.25 7.30964 16.6904 6.75 16 6.75Z" stroke="#1B1B1B" stroke-width="1.5"/>
<path d="M16 13.75H15C14.3096 13.75 13.75 14.3096 13.75 15V16C13.75 16.6904 14.3096 17.25 15 17.25H16C16.6904 17.25 17.25 16.6904 17.25 16V15C17.25 14.3096 16.6904 13.75 16 13.75Z" stroke="#1B1B1B" stroke-width="1.5"/>
<path d="M9 13.75H8C7.30964 13.75 6.75 14.3096 6.75 15V16C6.75 16.6904 7.30964 17.25 8 17.25H9C9.69036 17.25 10.25 16.6904 10.25 16V15C10.25 14.3096 9.69036 13.75 9 13.75Z" stroke="#1B1B1B" stroke-width="1.5"/>
<path d="M3.46401 3.4645C4.73461 2.19391 6.67708 2.0257 10.2479 2.00343C10.6627 2.00085 10.9995 2.33728 10.9995 2.75208C10.9995 3.16579 10.6642 3.50102 10.2505 3.50364C8.75854 3.51309 7.62464 3.54716 6.71306 3.66972C5.51782 3.83041 4.93175 4.11808 4.52467 4.52516C4.11759 4.93224 3.82992 5.51831 3.66923 6.71355C3.54667 7.62513 3.5126 8.75903 3.50315 10.2511C3.50053 10.6648 3.1653 11.0001 2.7516 11.0001C2.33679 11.0001 2.00036 10.6632 2.00294 10.2484C2.02521 6.67757 2.19342 4.73509 3.46401 3.4645Z" fill="#1B1B1B"/>
<path d="M2.7516 13C2.33679 13 2.00036 13.3368 2.00294 13.7516C2.02521 17.3224 2.19342 19.2649 3.46401 20.5355C4.73461 21.8061 6.67708 21.9743 10.2479 21.9966C10.6627 21.9992 10.9995 21.6627 10.9995 21.2479C10.9995 20.8342 10.6642 20.499 10.2505 20.4964C8.75854 20.4869 7.62464 20.4529 6.71306 20.3303C5.51782 20.1696 4.93175 19.8819 4.52467 19.4748C4.11759 19.0678 3.82992 18.4817 3.66923 17.2865C3.54667 16.3749 3.5126 15.241 3.50315 13.749C3.50053 13.3353 3.1653 13 2.7516 13Z" fill="#1B1B1B"/>
<path d="M21.248 13C20.8343 13 20.499 13.3353 20.4964 13.749C20.487 15.241 20.4529 16.3749 20.3304 17.2865C20.1697 18.4817 19.882 19.0678 19.4749 19.4748C19.0678 19.8819 18.4818 20.1696 17.2865 20.3303C16.3749 20.4529 15.241 20.4869 13.749 20.4964C13.3353 20.499 13 20.8342 13 21.2479C13 21.6627 13.3369 21.9992 13.7517 21.9966C17.3225 21.9743 19.265 21.8061 20.5356 20.5355C21.8062 19.2649 21.9744 17.3224 21.9966 13.7516C21.9992 13.3368 21.6628 13 21.248 13Z" fill="#1B1B1B"/>
<path d="M21.248 11.0001C21.6628 11.0001 21.9992 10.6632 21.9966 10.2484C21.9744 6.67757 21.8062 4.73509 20.5356 3.4645C19.265 2.19391 17.3225 2.0257 13.7517 2.00343C13.3369 2.00085 13 2.33728 13 2.75208C13 3.16579 13.3353 3.50102 13.749 3.50364C15.241 3.51309 16.3749 3.54716 17.2865 3.66972C18.4818 3.83041 19.0678 4.11808 19.4749 4.52516C19.882 4.93224 20.1697 5.51831 20.3304 6.71355C20.4529 7.62513 20.487 8.75903 20.4964 10.2511C20.499 10.6648 20.8343 11.0001 21.248 11.0001Z" fill="#1B1B1B"/>
</svg>
