<svg width="24" height="24" viewBox="0 0 24 24" fill="none" xmlns="http://www.w3.org/2000/svg">
<path d="M2.90078 7.75987L3.78078 6.23566C4.30078 5.335 5.4669 5.01522 6.37623 5.54022C7.94373 6.44522 9.22459 5.7067 9.22151 3.89204C9.22118 2.85262 10.0747 1.99437 11.1227 1.99904L13.116 2.00667C14.0351 1.99464 14.7785 2.74713 14.7905 3.66629L14.7908 3.88583C14.7852 5.69549 16.0669 6.43549 17.64 5.53083L17.8302 5.42129C18.6323 4.97213 19.6556 5.23964 20.1048 6.04167L21.108 7.76404C21.6361 8.66937 21.3196 9.83762 20.4192 10.357C18.8461 11.2617 18.847 12.7402 20.4145 13.6452C21.3152 14.1652 21.635 15.3313 21.11 16.2406L20.23 17.7648C19.71 18.6655 18.5438 18.9853 17.6345 18.4603C16.067 17.5553 14.7861 18.2938 14.7892 20.1084C14.7846 21.1565 13.9361 22.0061 12.888 22.0015L10.8948 21.9938C9.97562 22.0059 9.23227 21.2534 9.22024 20.3342L9.21997 20.1147C9.22555 18.305 7.94383 17.565 6.37075 18.4697L6.18049 18.5792C5.37846 19.0284 4.35511 18.7609 3.90595 17.9588L2.90273 16.2365C2.37464 15.3311 2.69118 14.1629 3.59151 13.6434C5.16459 12.7388 5.16373 11.2603 3.59623 10.3553C2.6869 9.83032 2.38078 8.66053 2.90078 7.75987Z" stroke="#1B1B1B" stroke-width="1.5" stroke-miterlimit="10" stroke-linecap="round" stroke-linejoin="round"/>
<path d="M15.25 12C15.25 10.2051 13.7949 8.75 12 8.75C10.2051 8.75 8.75 10.2051 8.75 12C8.75 13.7949 10.2051 15.25 12 15.25C13.7949 15.25 15.25 13.7949 15.25 12Z" stroke="#1B1B1B" stroke-width="1.5"/>
</svg>
