<svg width="24" height="24" viewBox="0 0 24 24" fill="none" xmlns="http://www.w3.org/2000/svg">
<path d="M17 2.75H7C4.65279 2.75 2.75 4.65279 2.75 7V17C2.75 19.3472 4.65279 21.25 7 21.25H17C19.3472 21.25 21.25 19.3472 21.25 17V7C21.25 4.65279 19.3472 2.75 17 2.75Z" stroke="#1B1B1B" stroke-width="1.5"/>
<mask id="mask0_1209_6144" style="mask-type:alpha" maskUnits="userSpaceOnUse" x="2" y="12" width="20" height="10">
<path fill-rule="evenodd" clip-rule="evenodd" d="M9.62445 13.5C9.40406 12.6184 8.61197 12 7.70328 12H5.99943C4.06617 12 3.09953 12 2.5083 12.6214C1.91706 13.2429 1.96289 14.162 2.05454 16.0003C2.16389 18.1936 2.4902 19.5618 3.46389 20.5355C4.92836 22 7.28538 22 11.9994 22C16.7135 22 19.0705 22 20.5349 20.5355C21.5086 19.5618 21.8349 18.1936 21.9443 16.0003C22.036 14.162 22.0818 13.2429 21.4905 12.6214C20.8993 12 19.9327 12 17.9994 12H16.2956C15.3869 12 14.5948 12.6184 14.3744 13.5C14.154 14.3816 13.362 15 12.4533 15H11.5456C10.6369 15 9.84484 14.3816 9.62445 13.5Z" fill="white"/>
</mask>
<g mask="url(#mask0_1209_6144)">
<path d="M21.9441 16.0003L20.446 15.9256L21.9441 16.0003ZM2.50806 12.6214L1.42131 11.5875L2.50806 12.6214ZM5.99919 13.5H7.70304V10.5H5.99919V13.5ZM4.52431 19.4749C3.97858 18.9291 3.65968 18.0765 3.55244 15.9256L0.556167 16.075C0.667633 18.3107 1.00134 20.1945 2.40299 21.5962L4.52431 19.4749ZM11.9992 20.5C9.59976 20.5 7.95109 20.4968 6.7127 20.3303C5.51746 20.1696 4.93139 19.882 4.52431 19.4749L2.40299 21.5962C3.46038 22.6536 4.78505 23.0981 6.31296 23.3036C7.79771 23.5032 9.68457 23.5 11.9992 23.5V20.5ZM19.4741 19.4749C19.067 19.882 18.4809 20.1696 17.2857 20.3303C16.0473 20.4968 14.3986 20.5 11.9992 20.5V23.5C14.3138 23.5 16.2007 23.5032 17.6854 23.3036C19.2134 23.0981 20.538 22.6536 21.5954 21.5962L19.4741 19.4749ZM20.446 15.9256C20.3387 18.0765 20.0198 18.9291 19.4741 19.4749L21.5954 21.5962C22.9971 20.1945 23.3308 18.3107 23.4422 16.075L20.446 15.9256ZM16.2954 13.5H17.9992V10.5H16.2954V13.5ZM12.4531 13.5H11.5454V16.5H12.4531V13.5ZM11.5454 13.5C11.325 13.5 11.1329 13.35 11.0795 13.1362L8.16899 13.8638C8.55632 15.4131 9.94838 16.5 11.5454 16.5V13.5ZM12.919 13.1362C12.8656 13.35 12.6735 13.5 12.4531 13.5V16.5C14.0501 16.5 15.4421 15.4131 15.8295 13.8638L12.919 13.1362ZM16.2954 10.5C14.6984 10.5 13.3064 11.5869 12.919 13.1362L15.8295 13.8638C15.8829 13.65 16.075 13.5 16.2954 13.5V10.5ZM7.70304 13.5C7.92343 13.5 8.11554 13.65 8.16899 13.8638L11.0795 13.1362C10.6921 11.5869 9.30003 10.5 7.70304 10.5V13.5ZM23.4422 16.075C23.4858 15.2013 23.5303 14.3838 23.4666 13.7128C23.3974 12.9834 23.1867 12.2283 22.5771 11.5875L20.4036 13.6554C20.409 13.6611 20.413 13.6639 20.4226 13.6892C20.4369 13.7263 20.4628 13.8144 20.48 13.9963C20.5183 14.3999 20.4941 14.9611 20.446 15.9256L23.4422 16.075ZM17.9992 13.5C19.0099 13.5 19.6113 13.5034 20.0409 13.5633C20.2373 13.5907 20.3341 13.6228 20.3766 13.641C20.3864 13.6452 20.3928 13.6484 20.3965 13.6504C20.4001 13.6524 20.4017 13.6535 20.402 13.6537C20.4022 13.6538 20.4019 13.6536 20.4016 13.6534C20.4013 13.6531 20.4019 13.6536 20.4036 13.6554L22.5771 11.5875C21.9563 10.935 21.1877 10.6942 20.4552 10.592C19.7703 10.4966 18.9218 10.5 17.9992 10.5V13.5ZM5.99919 10.5C5.07663 10.5 4.2281 10.4966 3.54325 10.592C2.81071 10.6942 2.0421 10.935 1.42131 11.5875L3.59481 13.6554C3.59646 13.6536 3.59707 13.6531 3.59679 13.6534C3.59649 13.6536 3.59625 13.6538 3.59644 13.6537C3.59665 13.6535 3.59828 13.6524 3.60191 13.6504C3.60559 13.6484 3.61199 13.6452 3.62185 13.641C3.66432 13.6228 3.7611 13.5907 3.95747 13.5633C4.38707 13.5034 4.98849 13.5 5.99919 13.5V10.5ZM3.55244 15.9256C3.50435 14.9611 3.48008 14.3999 3.51839 13.9963C3.53565 13.8144 3.56155 13.7263 3.57576 13.6892C3.58543 13.6639 3.58938 13.6611 3.59481 13.6554L1.42131 11.5875C0.811735 12.2283 0.601043 12.9834 0.531813 13.7128C0.468135 14.3838 0.512604 15.2013 0.556167 16.075L3.55244 15.9256Z" fill="#1B1B1B"/>
</g>
</svg>
