<svg width="24" height="24" viewBox="0 0 24 24" fill="none" xmlns="http://www.w3.org/2000/svg">
<path fill-rule="evenodd" clip-rule="evenodd" d="M4 8.97047C3.51076 8.93351 3.16925 8.85029 2.88886 8.66294C2.67048 8.51702 2.48298 8.32952 2.33706 8.11114C2 7.60669 2 6.90446 2 5.5C2 4.09554 2 3.39331 2.33706 2.88886C2.48298 2.67048 2.67048 2.48298 2.88886 2.33706C3.39331 2 4.09554 2 5.5 2H18.5C19.9045 2 20.6067 2 21.1111 2.33706C21.3295 2.48298 21.517 2.67048 21.6629 2.88886C22 3.39331 22 4.09554 22 5.5C22 6.90446 22 7.60669 21.6629 8.11114C21.517 8.32952 21.3295 8.51702 21.1111 8.66294C20.8307 8.85029 20.4892 8.93351 20 8.97047V14C20 17.7712 20 19.6569 18.8284 20.8284C17.6569 22 15.7712 22 12 22C8.22876 22 6.34315 22 5.17157 20.8284C4 19.6569 4 17.7712 4 14V8.97047ZM5.5 3.5H18.5C19.2334 3.5 19.6706 3.50181 19.9913 3.53443C20.1819 3.55382 20.2605 3.57874 20.2828 3.58766C20.3336 3.62249 20.3775 3.66641 20.4123 3.71719C20.4213 3.73951 20.4462 3.81813 20.4656 4.00873C20.4982 4.32937 20.5 4.76655 20.5 5.5C20.5 6.23345 20.4982 6.67063 20.4656 6.99127C20.4462 7.18186 20.4213 7.26048 20.4123 7.28281C20.3775 7.33359 20.3336 7.37751 20.2828 7.41234C20.2605 7.42126 20.1819 7.44618 19.9913 7.46557C19.6706 7.49819 19.2334 7.5 18.5 7.5H5.5C4.76655 7.5 4.32937 7.49819 4.00873 7.46557C3.81813 7.44618 3.73952 7.42126 3.71719 7.41233C3.66641 7.3775 3.6225 7.33359 3.58767 7.28281C3.57874 7.26048 3.55382 7.18187 3.53443 6.99127C3.50181 6.67063 3.5 6.23345 3.5 5.5C3.5 4.76655 3.50181 4.32937 3.53443 4.00873C3.55382 3.81813 3.57874 3.73952 3.58767 3.71719C3.6225 3.66641 3.66641 3.6225 3.71719 3.58767C3.73952 3.57874 3.81813 3.55382 4.00873 3.53443C4.32937 3.50181 4.76655 3.5 5.5 3.5ZM18.5 9H5.5V14C5.5 15.928 5.50319 17.2231 5.63307 18.1892C5.75715 19.1121 5.9716 19.5071 6.23223 19.7678C6.49287 20.0284 6.88786 20.2428 7.81078 20.3669C8.77686 20.4968 10.072 20.5 12 20.5C13.928 20.5 15.2231 20.4968 16.1892 20.3669C17.1121 20.2428 17.5071 20.0284 17.7678 19.7678C18.0284 19.5071 18.2428 19.1121 18.3669 18.1892C18.4968 17.2231 18.5 15.928 18.5 14V9ZM20.4118 7.28414C20.4098 7.28766 20.4089 7.28977 20.409 7.28995C20.409 7.29006 20.4094 7.28945 20.4101 7.28798C20.4106 7.28705 20.4111 7.28578 20.4118 7.28414Z" fill="#1B1B1B"/>
<path d="M9.75 14.25H14.25" stroke="#1B1B1B" stroke-width="1.5" stroke-linecap="round"/>
</svg>
