<svg width="24" height="24" viewBox="0 0 24 24" fill="none" xmlns="http://www.w3.org/2000/svg">
<mask id="mask0_1209_6191" style="mask-type:alpha" maskUnits="userSpaceOnUse" x="2" y="4" width="20" height="16">
<path fill-rule="evenodd" clip-rule="evenodd" d="M2.95921 10.2445C2.47476 9.97928 1.9989 9.55221 2.00197 8.99994C2.01408 6.82495 2.11054 5.64706 2.87892 4.87868C3.75759 4 5.17181 4 8.00024 4H16.0002C18.8286 4 20.2428 4 21.1215 4.87868C21.8899 5.64706 21.9863 6.82497 21.9984 8.99999C22.0015 9.55225 21.5257 9.9793 21.0413 10.2445C20.4209 10.5841 20.0003 11.2429 20.0003 12C20.0003 12.7571 20.4209 13.4159 21.0413 13.7555C21.5257 14.0207 22.0015 14.4478 21.9984 15C21.9863 17.175 21.8899 18.3529 21.1215 19.1213C20.2428 20 18.8286 20 16.0002 20H8.00024C5.17181 20 3.75759 20 2.87892 19.1213C2.11054 18.3529 2.01408 17.175 2.00197 15.0001C1.9989 14.4478 2.47476 14.0207 2.95921 13.7555C3.57956 13.4159 4.00024 12.7571 4.00024 12C4.00024 11.2429 3.57956 10.5841 2.95921 10.2445Z" fill="white"/>
</mask>
<g mask="url(#mask0_1209_6191)">
<path d="M21.1215 19.1213L22.1822 20.182L21.1215 19.1213ZM2.87892 19.1213L1.81824 20.182H1.81825L2.87892 19.1213ZM21.0413 13.7555L21.7616 12.4398L21.0413 13.7555ZM21.9984 15L20.4985 14.9917L21.9984 15ZM21.9984 9L20.4985 9.00835L21.9984 9ZM21.0413 10.2445L21.7616 11.5602L21.0413 10.2445ZM2.00196 8.99995L0.501992 8.9916L2.00196 8.99995ZM2.95921 10.2445L2.23893 11.5602L2.95921 10.2445ZM1.81825 3.81803C1.15258 4.48369 0.838316 5.28726 0.681522 6.14084C0.532604 6.95155 0.50798 7.91607 0.501992 8.9916L3.50195 9.0083C3.50806 7.90884 3.53773 7.19692 3.63216 6.68284C3.71872 6.21163 3.83686 6.04206 3.93958 5.93935L1.81825 3.81803ZM8.00024 2.50001C6.62843 2.50001 5.44866 2.49682 4.50854 2.62322C3.52526 2.75542 2.58275 3.05354 1.81825 3.81803L3.93958 5.93935C4.05376 5.82516 4.25768 5.68394 4.90829 5.59647C5.60205 5.5032 6.54362 5.50001 8.00024 5.50001V2.50001ZM16.0002 2.50001H8.00024V5.50001H16.0002V2.50001ZM22.1822 3.81803C21.4177 3.05354 20.4751 2.75542 19.4919 2.62322C18.5517 2.49682 17.372 2.50001 16.0002 2.50001V5.50001C17.4568 5.50001 18.3984 5.5032 19.0921 5.59647C19.7427 5.68394 19.9467 5.82516 20.0608 5.93935L22.1822 3.81803ZM23.4984 8.99165C23.4924 7.91611 23.4678 6.95158 23.3189 6.14086C23.1621 5.28727 22.8478 4.4837 22.1822 3.81803L20.0608 5.93935C20.1636 6.04207 20.2817 6.21164 20.3683 6.68285C20.4627 7.19694 20.4924 7.90887 20.4985 9.00835L23.4984 8.99165ZM21.5003 12C21.5003 11.8128 21.6026 11.6472 21.7616 11.5602L20.321 8.92877C19.2392 9.52096 18.5003 10.6731 18.5003 12H21.5003ZM21.7616 12.4398C21.6026 12.3528 21.5003 12.1872 21.5003 12H18.5003C18.5003 13.3269 19.2392 14.4791 20.321 15.0712L21.7616 12.4398ZM22.1822 20.182C22.8478 19.5163 23.1621 18.7127 23.3189 17.8591C23.4678 17.0484 23.4924 16.0839 23.4984 15.0084L20.4985 14.9917C20.4924 16.0911 20.4627 16.8031 20.3683 17.3172C20.2817 17.7884 20.1636 17.9579 20.0608 18.0607L22.1822 20.182ZM16.0002 21.5C17.372 21.5 18.5517 21.5032 19.4919 21.3768C20.4751 21.2446 21.4177 20.9465 22.1822 20.182L20.0608 18.0607C19.9467 18.1748 19.7427 18.3161 19.0921 18.4035C18.3984 18.4968 17.4568 18.5 16.0002 18.5V21.5ZM8.00024 21.5H16.0002V18.5H8.00024V21.5ZM1.81825 20.182C2.58275 20.9465 3.52526 21.2446 4.50854 21.3768C5.44866 21.5032 6.62843 21.5 8.00024 21.5V18.5C6.54362 18.5 5.60205 18.4968 4.90829 18.4035C4.25768 18.3161 4.05376 18.1748 3.93958 18.0607L1.81825 20.182ZM0.501992 15.0084C0.50798 16.0839 0.532604 17.0485 0.681522 17.8592C0.838317 18.7128 1.15258 19.5163 1.81824 20.182L3.93958 18.0607C3.83686 17.9579 3.71872 17.7884 3.63216 17.3172C3.53773 16.8031 3.50806 16.0912 3.50195 14.9917L0.501992 15.0084ZM2.50023 12C2.50023 12.1873 2.39788 12.3528 2.23893 12.4398L3.67948 15.0713C4.76124 14.4791 5.50024 13.3269 5.50024 12H2.50023ZM2.23893 11.5602C2.39788 11.6472 2.50023 11.8127 2.50023 12H5.50024C5.50024 10.6731 4.76124 9.5209 3.67948 8.92873L2.23893 11.5602ZM3.50195 14.9917C3.50241 15.0759 3.48353 15.1474 3.46276 15.1963C3.44377 15.241 3.42782 15.2566 3.43655 15.2464C3.44536 15.2362 3.46922 15.2114 3.51456 15.1768C3.55918 15.1428 3.61494 15.1066 3.67948 15.0713L2.23893 12.4398C1.89537 12.6278 1.49223 12.9051 1.15899 13.2938C0.819053 13.6903 0.49789 14.2717 0.501992 15.0084L3.50195 14.9917ZM20.321 15.0712C20.3855 15.1066 20.4413 15.1428 20.4859 15.1768C20.5312 15.2114 20.5551 15.2361 20.5639 15.2464C20.5726 15.2566 20.5566 15.2409 20.5377 15.1962C20.5169 15.1473 20.498 15.0759 20.4985 14.9917L23.4984 15.0084C23.5025 14.2716 23.1814 13.6903 22.8415 13.2938C22.5083 12.9051 22.1051 12.6278 21.7616 12.4398L20.321 15.0712ZM20.4985 9.00835C20.498 8.92412 20.5169 8.85268 20.5377 8.80379C20.5566 8.75908 20.5726 8.74343 20.5639 8.75362C20.5551 8.76389 20.5312 8.78864 20.4859 8.82322C20.4413 8.85725 20.3855 8.89344 20.321 8.92877L21.7616 11.5602C22.1051 11.3722 22.5083 11.0949 22.8415 10.7062C23.1814 10.3097 23.5025 9.72838 23.4984 8.99165L20.4985 9.00835ZM0.501992 8.9916C0.49789 9.72835 0.819053 10.3097 1.15899 10.7062C1.49222 11.0949 1.89537 11.3722 2.23893 11.5602L3.67948 8.92873C3.61494 8.8934 3.55918 8.8572 3.51456 8.82317C3.46922 8.78859 3.44536 8.76384 3.43655 8.75357C3.42782 8.74337 3.44377 8.75903 3.46276 8.80373C3.48353 8.85263 3.50241 8.92407 3.50195 9.0083L0.501992 8.9916Z" fill="#1B1B1B"/>
<path d="M9.75 5.75V8.25" stroke="#1B1B1B" stroke-width="1.5" stroke-linecap="round"/>
<path d="M9.75 11.75V13.25" stroke="#1B1B1B" stroke-width="1.5" stroke-linecap="round"/>
<path d="M9.75 16.75V18.25" stroke="#1B1B1B" stroke-width="1.5" stroke-linecap="round"/>
</g>
</svg>
