<svg width="24" height="24" viewBox="0 0 24 24" fill="none" xmlns="http://www.w3.org/2000/svg">
<path d="M18 1.75H6C3.65279 1.75 1.75 3.65279 1.75 6V18C1.75 20.3472 3.65279 22.25 6 22.25H18C20.3472 22.25 22.25 20.3472 22.25 18V6C22.25 3.65279 20.3472 1.75 18 1.75Z" stroke="#1B1B1B" stroke-width="1.5"/>
<path d="M9.11817 7.60059L11.3789 9.86134M9.11817 15.4216V7.60059V15.4216ZM9.11817 7.60059L6.85742 9.86134L9.11817 7.60059Z" stroke="#1B1B1B" stroke-width="1.5" stroke-linecap="round" stroke-linejoin="round"/>
<path d="M14.7393 16.3992L12.4785 14.1384M14.7393 8.57812V16.3992V8.57812ZM14.7393 16.3992L17 14.1384L14.7393 16.3992Z" stroke="#1B1B1B" stroke-width="1.5" stroke-linecap="round" stroke-linejoin="round"/>
</svg>
