<svg width="24" height="24" viewBox="0 0 24 24" fill="none" xmlns="http://www.w3.org/2000/svg">
<path d="M22 12C22 15.866 18.866 19 15 19H7C4.23858 19 2 16.7614 2 14C2 11.2386 4.23858 9 7 9C7.54527 9 8.07015 9.08728 8.56143 9.24864C9.63037 6.75042 12.1108 5 15 5C18.866 5 22 8.13401 22 12Z" stroke="#1B1B1B" stroke-width="1.5" stroke-linejoin="round"/>
<path d="M10.2328 6.87419C9.82091 6.05899 8.97574 5.5 8 5.5C6.61929 5.5 5.5 6.61929 5.5 8C5.5 8.41466 5.60095 8.80573 5.77962 9.15C5.28411 9.27428 4.81795 9.47251 4.39353 9.73228C4.14132 9.20814 4 8.62057 4 8C4 5.79086 5.79086 4 8 4C9.4673 4 10.7501 4.79005 11.4461 5.96796C11.0089 6.2261 10.6022 6.53041 10.2328 6.87419Z" fill="#1B1B1B"/>
</svg>
