<svg width="24" height="24" viewBox="0 0 24 24" fill="none" xmlns="http://www.w3.org/2000/svg">
<path d="M9.00755 3.2649C10.7966 3.00435 11.4736 2.92065 12.0928 3.09017C12.204 3.1206 12.3134 3.15693 12.4208 3.19899C13.0185 3.4333 13.5111 3.90508 14.7895 5.18346L16.1364 6.53037C17.3263 7.72028 18.1707 8.56641 18.7412 9.29186C19.3011 10.0039 19.5334 10.5228 19.5801 11.0418C19.5976 11.2358 19.5976 11.4309 19.5801 11.6249L20.3271 11.6922L19.5801 11.6249C19.5334 12.1439 19.3011 12.6628 18.7412 13.3748C18.1707 14.1003 17.3263 14.9464 16.1364 16.1363C14.9465 17.3262 14.1004 18.1706 13.3749 18.7411C12.6629 19.301 12.144 19.5333 11.625 19.58L11.6923 20.327L11.625 19.58C11.431 19.5975 11.2358 19.5975 11.0418 19.58C10.5228 19.5333 10.004 19.301 9.29188 18.7411C8.56642 18.1706 7.72029 17.3262 6.53038 16.1363L5.18347 14.7894C3.90509 13.511 3.43331 13.0184 3.199 12.4207C3.15694 12.3134 3.12061 12.2039 3.09017 12.0927C2.92066 11.4735 3.00436 10.7965 3.26491 9.00754C3.4501 7.73599 3.58171 6.83879 3.75675 6.1466C3.92783 5.47012 4.12487 5.05855 4.4015 4.73807C4.50531 4.6178 4.61781 4.50531 4.73807 4.4015C5.05855 4.12486 5.47012 3.92782 6.1466 3.75675C6.83879 3.5817 7.73599 3.45009 9.00755 3.2649Z" stroke="#1B1B1B" stroke-width="1.5"/>
<path d="M11 10.9998C11.7364 10.2635 11.7364 9.06955 11 8.33317C10.2636 7.59679 9.06971 7.59679 8.33333 8.33317C7.59695 9.06955 7.59695 10.2635 8.33333 10.9998C9.06971 11.7362 10.2636 11.7362 11 10.9998Z" stroke="#1B1B1B" stroke-width="1.5"/>
</svg>
