<svg width="24" height="24" viewBox="0 0 24 24" fill="none" xmlns="http://www.w3.org/2000/svg">
<path d="M11.1164 3.66277C11.4924 2.95486 12.5068 2.95486 12.8828 3.66277L14.8388 7.34562C14.9833 7.61777 15.2453 7.80807 15.5488 7.86144L19.6558 8.58368C20.4453 8.7225 20.7587 9.68721 20.2016 10.2635L17.3035 13.2619C17.0893 13.4834 16.9893 13.7914 17.0323 14.0965L17.6146 18.2257C17.7265 19.0194 16.9058 19.6156 16.1856 19.2639L12.4384 17.4342C12.1615 17.2989 11.8377 17.2989 11.5608 17.4342L7.81363 19.2639C7.09335 19.6156 6.27272 19.0194 6.38464 18.2257L6.9669 14.0965C7.00993 13.7914 6.90988 13.4834 6.69572 13.2619L3.79757 10.2635C3.24049 9.68721 3.55395 8.7225 4.3434 8.58368L8.45044 7.86144C8.75393 7.80807 9.01587 7.61776 9.16041 7.34562L11.1164 3.66277Z" stroke="#1B1B1B" stroke-width="1.5"/>
</svg>
