<svg width="80" height="80" viewBox="0 0 80 80" fill="none" xmlns="http://www.w3.org/2000/svg">
<path d="M7.52031 2.82031L2.82031 7.52031L9.48698 14.187V67.187H62.487L72.487 77.187L77.187 72.487L7.52031 2.82031ZM22.8203 60.5203H16.1536V53.8536H22.8203V60.5203ZM22.8203 47.187H16.1536V40.5203H22.8203V47.187ZM16.1536 33.8536V27.187H22.8203V33.8536H16.1536ZM36.1536 60.5203H29.487V53.8536H36.1536V60.5203ZM29.487 47.187V40.5203H36.1536V47.187H29.487ZM42.8203 60.5203V53.8536H49.1536L55.8203 60.5203H42.8203ZM29.487 13.8536H36.1536V20.5203H34.6536L42.8203 28.687V27.187H69.487V55.3536L76.1536 62.0203V20.5203H42.8203V7.18698H21.3203L29.487 15.3536V13.8536ZM56.1536 33.8536H62.8203V40.5203H56.1536V33.8536Z" fill="#E80976"/>
</svg>
