<svg width="24" height="24" viewBox="0 0 24 24" fill="none" xmlns="http://www.w3.org/2000/svg">
<circle cx="9" cy="12" r="1" stroke="#1B1B1B" stroke-width="1.2"/>
<circle cx="7" cy="6" r="2" stroke="#1B1B1B" stroke-width="1.5"/>
<circle cx="12" cy="4" r="3" stroke="#1B1B1B" stroke-width="1.5"/>
<circle cx="17" cy="6" r="2" stroke="#1B1B1B" stroke-width="1.5"/>
<path fill-rule="evenodd" clip-rule="evenodd" d="M14.7429 5.21679C14.9082 4.84486 15 4.43308 15 3.99985C15 3.90406 14.9955 3.80932 14.9867 3.71582C15.3918 3.84604 15.7853 4.00202 16.1654 4.18186C15.6701 4.40961 15.2838 4.83382 15.1064 5.35466C14.9866 5.30594 14.8654 5.25996 14.7429 5.21679ZM9.25709 5.21679C9.09183 4.84486 9 4.43308 9 3.99985C9 3.90406 9.00449 3.80931 9.01327 3.71582C8.60819 3.84603 8.21467 4.00202 7.83464 4.18186C8.32994 4.40961 8.7162 4.83382 8.89363 5.35466C9.01341 5.30594 9.13458 5.25996 9.25709 5.21679ZM5.77742 7.58284C5.35471 7.25588 5.06655 6.76336 5.01013 6.20247C3.30198 7.95869 2.25 10.3564 2.25 12.9998C2.25 18.3846 6.61522 22.7498 12 22.7498C17.3848 22.7498 21.75 18.3846 21.75 12.9998C21.75 10.3564 20.698 7.95869 18.9899 6.20247C18.9335 6.76336 18.6453 7.25588 18.2226 7.58284C19.4853 9.03212 20.25 10.9267 20.25 12.9998C20.25 17.5562 16.5563 21.2498 12 21.2498C7.44365 21.2498 3.75 17.5562 3.75 12.9998C3.75 10.9267 4.5147 9.03212 5.77742 7.58284Z" fill="#1B1B1B"/>
<circle cx="15" cy="12" r="1" stroke="#1B1B1B" stroke-width="1.2"/>
<path fill-rule="evenodd" clip-rule="evenodd" d="M8.63165 16C7.95844 16 7.57107 16.7284 8.0615 17.1896C9.09044 18.1572 10.4759 18.75 11.9997 18.75C13.5236 18.75 14.9091 18.1572 15.938 17.1896C16.4284 16.7284 16.0411 16 15.3678 16C15.1389 16 14.922 16.0944 14.7473 16.2425C14.0065 16.871 13.0474 17.25 11.9997 17.25C10.9521 17.25 9.99304 16.871 9.25214 16.2425C9.07751 16.0944 8.86064 16 8.63165 16Z" fill="#1B1B1B"/>
</svg>
