<?xml version="1.0" encoding="UTF-8" standalone="no"?>
<svg
   xmlns:dc="http://purl.org/dc/elements/1.1/"
   xmlns:cc="http://creativecommons.org/ns#"
   xmlns:rdf="http://www.w3.org/1999/02/22-rdf-syntax-ns#"
   xmlns:svg="http://www.w3.org/2000/svg"
   xmlns="http://www.w3.org/2000/svg"
   xmlns:sodipodi="http://sodipodi.sourceforge.net/DTD/sodipodi-0.dtd"
   xmlns:inkscape="http://www.inkscape.org/namespaces/inkscape"
   width="24"
   height="24"
   viewBox="0 0 24 24"
   fill="none"
   id="svg2"
   version="1.1"
   inkscape:version="0.91 r13725"
   sodipodi:docname="profilehome.svg">
  <metadata
     id="metadata12">
    <rdf:RDF>
      <cc:Work
         rdf:about="">
        <dc:format>image/svg+xml</dc:format>
        <dc:type
           rdf:resource="http://purl.org/dc/dcmitype/StillImage" />
      </cc:Work>
    </rdf:RDF>
  </metadata>
  <defs
     id="defs10" />
  <sodipodi:namedview
     pagecolor="#ffffff"
     bordercolor="#666666"
     borderopacity="1"
     objecttolerance="10"
     gridtolerance="10"
     guidetolerance="10"
     inkscape:pageopacity="0"
     inkscape:pageshadow="2"
     inkscape:window-width="1366"
     inkscape:window-height="704"
     id="namedview8"
     showgrid="false"
     inkscape:zoom="9.8333333"
     inkscape:cx="12"
     inkscape:cy="12"
     inkscape:window-x="0"
     inkscape:window-y="27"
     inkscape:window-maximized="1"
     inkscape:current-layer="svg2" />
  <path
     d="m 12.249999,5.4999742 c -0.791146,0 -1.564479,0.2345928 -2.222282,0.674125 C 9.3699252,6.6136207 8.857232,7.2383375 8.55448,7.969252 8.2517281,8.7001559 8.1725174,9.5044253 8.3268641,10.280364 8.4812,11.05626 8.86216,11.769009 9.4215732,12.328478 c 0.5594133,0.559362 1.2721598,0.940376 2.0480528,1.094617 0.775893,0.154347 1.58016,0.0752 2.311146,-0.227628 0.73088,-0.302721 1.355627,-0.815362 1.795093,-1.473178 0.439574,-0.657816 0.674134,-1.431152 0.674134,-2.222301 0,-1.0608677 -0.42144,-2.0782898 -1.17152,-2.8284364 C 14.328292,5.921405 13.310906,5.4999742 12.249999,5.4999742 Z m 0,6.4000218 c -0.474666,0 -0.938666,-0.1408 -1.333333,-0.404481 C 10.522,11.231834 10.214373,10.857006 10.032688,10.418391 9.8510451,9.979883 9.8035145,9.4973213 9.8961118,9.031773 9.9887198,8.5662141 10.217253,8.1385753 10.552933,7.8029261 c 0.33568,-0.3356491 0.763307,-0.5642259 1.2288,-0.6568342 0.4656,-0.092598 0.94816,-0.045077 1.386666,0.1365765 0.438613,0.1816539 0.81344,0.489271 1.07712,0.8839497 0.26368,0.3946786 0.40448,0.8586909 0.40448,1.3333699 -6.4e-4,0.636375 -0.253653,1.246404 -0.70368,1.696326 -0.44992,0.450028 -1.059946,0.703042 -1.69632,0.703682 z"
     id="path4"
     inkscape:connector-curvature="0"
     style="fill:#595959" />
  <path
     d="m 12.177965,0.02542777 c -2.3733708,0 -4.6934508,0.70378277 -6.6668334,2.02236543 C 3.5377374,3.3663643 1.999669,5.2405124 1.0914176,7.4332206 0.18316637,9.6259401 -0.05447936,12.038682 0.40854921,14.366453 0.87156632,16.694224 2.0144576,18.83251 3.692686,20.510681 c 1.6782284,1.678285 3.8164339,2.821143 6.1442046,3.284114 2.3278184,0.463085 4.7406164,0.225486 6.9333034,-0.682858 2.192685,-0.908227 4.066857,-2.446284 5.385371,-4.419655 1.318627,-1.973372 2.022399,-4.293485 2.022399,-6.666856 C 24.174264,8.8439404 22.908936,5.7938038 20.659222,3.5441585 18.409622,1.2945019 15.35945,0.02906206 12.177965,0.02542777 Z M 7.0351085,20.920052 l 0,-1.180343 c 6.857e-4,-0.681828 0.2718171,-1.335428 0.7539086,-1.817485 0.4820913,-0.482171 1.1357484,-0.753257 1.8175195,-0.753942 l 5.1428574,0 c 0.681828,6.85e-4 1.335428,0.271771 1.817485,0.753942 0.482171,0.482057 0.753257,1.135657 0.753943,1.817485 l 0,1.180343 c -1.560686,0.911315 -3.335542,1.391543 -5.142857,1.391543 -1.807313,0 -3.5821366,-0.480228 -5.1428565,-1.391543 z m 11.9931405,-1.24377 c -0.01703,-1.124344 -0.475198,-2.196915 -1.275542,-2.986629 -0.800342,-0.789828 -1.878856,-1.233486 -3.003313,-1.235657 l -5.1428574,0 c -1.124411,0.0021 -2.2029939,0.445829 -3.0033481,1.235657 -0.8003542,0.789714 -1.2584227,1.862285 -1.2755083,2.986629 -1.5543655,-1.387886 -2.6505141,-3.2152 -3.1432797,-5.24 C 1.6916347,12.411482 1.8254862,10.284854 2.5682289,8.3378719 3.3109832,6.3908894 4.6275887,4.7154269 6.3437143,3.5333356 8.0598513,2.3512559 10.094537,1.7183075 12.178422,1.7183075 c 2.083771,0 4.118515,0.6329484 5.834628,1.8150281 1.716114,1.1820913 3.0328,2.8575538 3.775542,4.8045363 0.742744,1.9469821 0.876573,4.0736101 0.383772,6.0984101 -0.492685,2.0248 -1.588914,3.852114 -3.1432,5.24 l -9.15e-4,0 z"
     id="path6"
     inkscape:connector-curvature="0"
     style="fill:#595959" />
</svg>
